<?xml version="1.0" encoding="utf-8"?>
<!-- Generator: Adobe Illustrator 16.0.0, SVG Export Plug-In . SVG Version: 6.00 Build 0)  -->
<!DOCTYPE svg PUBLIC "-//W3C//DTD SVG 1.1//EN" "http://www.w3.org/Graphics/SVG/1.1/DTD/svg11.dtd">
<svg version="1.1" id="Layer_1" xmlns="http://www.w3.org/2000/svg" xmlns:xlink="http://www.w3.org/1999/xlink" x="0px" y="0px"
	 width="108.844px" height="33.586px" viewBox="0 0 108.844 33.586" enable-background="new 0 0 108.844 33.586"
	 xml:space="preserve">
<g>
	<path fill="#FFFFFF" d="M26.133,0.469h4.383v32.742h-4.711V7.734L15.738,20.391h-0.866L4.688,7.734v25.477H0V0.469h4.438
		l10.88,13.447L26.133,0.469z"/>
	<path fill="#FFFFFF" d="M53.637,0c5.058,0,9.271,1.602,12.636,4.805c3.365,3.203,5.047,7.219,5.047,12.047
		c0,4.828-1.697,8.824-5.094,11.988c-3.396,3.164-7.679,4.746-12.848,4.746c-4.936,0-9.045-1.582-12.332-4.746
		s-4.93-7.129-4.93-11.895c0-4.891,1.654-8.938,4.965-12.141C44.393,1.602,48.578,0,53.637,0z M53.824,4.453
		c-3.747,0-6.826,1.172-9.238,3.516c-2.412,2.344-3.618,5.336-3.618,8.977c0,3.531,1.209,6.469,3.629,8.813
		c2.419,2.345,5.448,3.517,9.085,3.517c3.652,0,6.701-1.194,9.145-3.586c2.442-2.392,3.665-5.367,3.665-8.931
		c0-3.469-1.223-6.387-3.665-8.754C60.384,5.637,57.383,4.453,53.824,4.453z"/>
	<path fill="#FFFFFF" d="M88.172,33.211H77.086V0.469h8.578c2.703,0,4.813,0.363,6.328,1.09c1.515,0.727,2.672,1.727,3.469,3
		s1.194,2.746,1.194,4.418c0,3.219-1.663,5.523-4.991,6.914c2.391,0.453,4.293,1.438,5.707,2.953
		c1.414,1.516,2.121,3.328,2.121,5.438c0,1.673-0.431,3.164-1.289,4.479c-0.859,1.313-2.121,2.383-3.785,3.211
		C92.754,32.798,90.672,33.211,88.172,33.211z M85.805,4.641h-4.031v9.844h3.117c2.5,0,4.277-0.477,5.332-1.43
		c1.055-0.953,1.582-2.188,1.582-3.703C91.805,6.211,89.805,4.641,85.805,4.641z M86.156,18.656h-4.383v10.383h4.617
		c2.563,0,4.301-0.199,5.215-0.598c0.914-0.399,1.647-1.021,2.203-1.863c0.555-0.844,0.832-1.75,0.832-2.719
		c0-1-0.293-1.914-0.879-2.742c-0.587-0.828-1.419-1.445-2.496-1.852C90.188,18.857,88.484,18.656,86.156,18.656z"/>
	<path fill="#FFFFFF" d="M104.156,0.469h4.688v32.742h-4.688V0.469z"/>
</g>
</svg>
